<?xml version="1.0" encoding="UTF-8"?>
<svg xmlns="http://www.w3.org/2000/svg" viewBox="186.1 223.8 419.2 276.4" fill-rule="nonzero"><g><path d="M398.55 308.05C398.683 307.317 398.817 306.584 398.95 305.85C398.95 305.783 398.967 305.734 399 305.7C399.2 304.667 399.45 303.683 399.75 302.75C399.817 302.383 399.933 302 400.1 301.6C400.467 300.4 400.867 299.234 401.3 298.1C402.067 296.234 402.95 294.484 403.95 292.85C412.651 280.783 426.5 274.734 445.5 274.7C440.967 300.334 429.417 311.55 410.85 308.35C413.75 294.984 423.083 285.317 438.85 279.35C432.616 279.984 427.167 281.517 422.5 283.95C418.234 286.15 414.634 289.133 411.7 292.9C410.6 294.267 409.6 295.767 408.7 297.4C407.267 299.9 406.067 302.683 405.1 305.75C405 305.95 404.934 306.167 404.901 306.4C403.934 309.4 403.217 312.683 402.75 316.25L398.55 308.05ZM396.85 294.85C397.017 295.883 397.2 296.933 397.4 298L397.1 298.85L397.1 298.95L397 299.1L395.05 304.7C394.617 302.667 394.234 300.7 393.9 298.8L393.9 298.75L393.9 298.5C393.633 297.033 393.417 295.633 393.25 294.3C391.084 276.967 394.3 264.567 402.901 257.1C405.567 254.8 408.734 252.967 412.401 251.6C417.1 268.734 412.866 278.967 399.7 282.3C398.933 272.533 401.817 263.8 408.35 256.1C406.151 257.334 404.234 258.867 402.6 260.7C396.234 267.734 394.317 279.117 396.85 294.85M461.55 292.35C460.05 281.117 455.85 271.017 448.95 262.05C447.116 259.65 445.067 257.317 442.8 255.05C440.366 252.617 437.833 250.4 435.2 248.4C426.234 241.667 416.134 237.617 404.901 236.25C402.634 235.984 400.317 235.834 397.95 235.8C397.383 235.767 396.817 235.75 396.25 235.75C392.617 235.75 389.084 236.017 385.65 236.55C374.717 238.217 364.867 242.484 356.1 249.35C353.9 251.084 351.767 252.984 349.7 255.05C347.133 257.617 344.834 260.283 342.8 263.05C336.3 271.85 332.367 281.7 331 292.6C330.633 295.5 330.45 298.5 330.45 301.6C330.45 303.234 330.5 304.85 330.6 306.45C330.7 308.183 330.867 309.883 331.1 311.55C332.633 322.317 336.667 332.033 343.2 340.7C343.867 341.567 344.567 342.433 345.3 343.3C346.334 344.567 348.467 346.667 351.7 349.6C351.862 349.744 352.023 349.899 352.183 350.045C353.354 351.154 354.224 351.974 354.3 352.05C354.633 352.384 355.334 353.151 356.4 354.35C356.933 354.984 357.55 355.717 358.25 356.55C359.984 358.817 361.433 361.2 362.6 363.7C363.1 364.8 363.55 365.95 363.95 367.151C364.217 367.55 364.533 367.934 364.9 368.3C366.533 369.901 368.484 370.734 370.75 370.8L385.35 370.8L387.45 370.8C388.283 370.767 389.067 370.634 389.8 370.401C390.8 370.033 391.7 369.434 392.5 368.6C393.067 368 393.533 367.366 393.9 366.7C394.4 365.734 394.667 364.7 394.7 363.6L394.7 361.1L394.7 346.3L394.7 342.65C394.367 333.917 392.867 326.234 390.2 319.6C389.667 318.234 389.067 316.933 388.4 315.7C386.933 312.767 385.2 310.084 383.2 307.65C382.967 307.317 382.7 307 382.4 306.7C378.8 302.5 374.417 299 369.25 296.2C364.484 293.6 359.084 291.584 353.05 290.15C354.85 291.017 356.567 291.9 358.2 292.8C373.834 301.7 383.283 314.45 386.55 331.05C358.717 328.484 345.667 313.317 347.4 285.55C373.8 288.55 390.8 299.25 398.4 317.65L399.55 320.85C400.084 322.45 400.55 324.1 400.95 325.8C401.184 327 401.417 328.234 401.651 329.5C402.217 332.8 402.583 336.267 402.75 339.9L402.75 361.95L402.75 363.3C402.817 365.3 403.55 367.017 404.95 368.45L405 368.5C406.467 369.967 408.234 370.734 410.3 370.8L421.651 370.8C422.55 370.767 423.401 370.634 424.2 370.401C425.401 369.967 426.484 369.267 427.45 368.3C427.783 367.967 428.1 367.616 428.401 367.25C428.833 365.917 429.333 364.651 429.901 363.45C430.8 361.417 431.917 359.517 433.25 357.75C433.884 356.917 434.484 356.167 435.05 355.5C436.017 354.333 438.151 352.417 438.35 352.25C438.95 351.717 439.567 351.184 440.2 350.65L440.2 350.6C440.378 350.439 440.623 350.211 440.892 349.958C441.362 349.526 441.83 349.097 442.3 348.65C442.467 348.484 442.634 348.3 442.8 348.1C442.866 348.067 442.917 348.017 442.95 347.95L446.25 344.45C446.55 344.084 446.866 343.7 447.2 343.3C447.234 343.267 447.267 343.25 447.3 343.25C447.734 342.75 448.151 342.217 448.55 341.65C455.517 332.817 459.8 322.85 461.401 311.75C461.634 310.017 461.817 308.25 461.95 306.45C462.05 304.85 462.1 303.234 462.1 301.6C462.1 298.433 461.917 295.35 461.55 292.35" fill="#365fcf" fill-rule="nonzero" /><path d="M420.3 379.05L371.15 379.05L370.8 379.05C368.667 379.116 366.817 379.901 365.25 381.401C364.45 382.234 363.85 383.134 363.45 384.1C363.15 384.833 362.967 385.616 362.9 386.45L362.9 388.35C363.067 390.184 363.85 391.8 365.25 393.2C366.883 394.833 368.85 395.651 371.15 395.651L420.3 395.651C422.6 395.651 424.55 394.833 426.151 393.2C427.717 391.667 428.533 389.8 428.6 387.6L428.6 387.2C428.567 384.967 427.75 383.033 426.151 381.401C424.55 379.833 422.6 379.05 420.3 379.05" fill="#365fcf" fill-rule="nonzero" /><path d="M420.3 403.45L371.15 403.45C368.85 403.45 366.883 404.25 365.25 405.849C363.85 407.283 363.067 408.95 362.9 410.849L362.9 412.75C363.067 414.583 363.85 416.2 365.25 417.599C366.883 419.2 368.817 420.016 371.05 420.05L420.401 420.05C422.634 420.016 424.55 419.2 426.151 417.599C427.717 416.066 428.533 414.2 428.6 412L428.6 411.599C428.567 409.366 427.75 407.45 426.151 405.849C424.55 404.25 422.6 403.45 420.3 403.45" fill="#365fcf" fill-rule="nonzero" /><path d="M330 450.4C327.867 450.4 326.217 451.083 325.05 452.45C323.817 453.816 323.083 455.866 322.85 458.599L336.4 458.599C336.4 455.667 335.783 453.549 334.55 452.25C333.383 451.016 331.867 450.4 330 450.4M364.45 446.45L364.45 451.5C363.517 451.167 362.683 451 361.95 451C360.283 451 358.733 451.516 357.3 452.549C355.833 453.583 354.533 455.099 353.4 457.099L353.4 476.7L347.95 476.7L347.95 447L353.4 447L353.4 452.549C354.4 450.583 355.733 449.049 357.4 447.95C359 446.849 360.75 446.299 362.65 446.299C363.217 446.299 363.817 446.349 364.45 446.45M378.1 436.25L378.1 471L396.15 471L396.15 476.7L369.65 476.7L369.65 436.25L378.1 436.25ZM479.95 453.4C478.85 452.966 477.8 452.75 476.8 452.75C475.2 452.75 473.75 453.167 472.45 454C471.116 454.766 469.934 455.983 468.9 457.65L468.9 476.7L460.8 476.7L460.8 446.65L468.9 446.65L468.9 452.4C469.866 450.4 471.184 448.833 472.85 447.7C474.55 446.533 476.417 445.95 478.45 445.95C478.95 445.95 479.45 446.033 479.95 446.2L479.95 453.4ZM407.7 468.099C408.434 469.266 409.417 470.2 410.65 470.9C411.884 471.533 413.55 471.849 415.65 471.849C418.35 471.849 421.384 471.25 424.75 470.049L424.75 475.75C420.917 476.849 417.3 477.4 413.9 477.4C410.667 477.4 407.833 476.783 405.4 475.549C402.967 474.383 401.083 472.5 399.75 469.9C398.45 467.299 397.8 464.483 397.8 461.45C397.8 458.65 398.35 456.066 399.45 453.7C400.584 451.299 402.2 449.417 404.3 448.049C406.434 446.65 409.066 445.95 412.2 445.95C416.033 445.95 419.083 447.183 421.35 449.65C423.616 452.083 424.75 456.633 424.75 463.299L406.3 463.299C406.467 465.333 406.934 466.933 407.7 468.099M411.95 451.049C410.384 451.049 409.066 451.7 408 453C407.033 454.299 406.434 456.216 406.2 458.75L416.8 458.75C416.8 456.016 416.35 454.033 415.45 452.799C414.55 451.633 413.384 451.049 411.95 451.049M443.4 463.049C440.767 463.049 438.8 463.533 437.5 464.5C436.2 465.433 435.55 466.583 435.55 467.95C435.55 469.083 435.95 470.033 436.75 470.799C437.517 471.5 438.434 471.849 439.5 471.849C440.434 471.849 441.384 471.633 442.35 471.2C443.316 470.733 444.3 470.033 445.3 469.099L445.3 463.049L443.4 463.049ZM439.9 451C436.8 451 433.634 451.883 430.4 453.65L430.4 448.049C434.066 446.65 437.717 445.95 441.35 445.95C443.55 445.95 445.533 446.266 447.3 446.9C449.066 447.5 450.467 448.433 451.5 449.7C452.566 450.933 453.1 452.833 453.1 455.4L453.1 468.7C453.1 470.299 453.35 471.283 453.85 471.65C454.316 472.016 454.8 472.2 455.3 472.2C455.6 472.2 455.983 472.167 456.45 472.099L456.6 476.65C454.9 477.15 453.384 477.4 452.05 477.4C450.55 477.4 449.25 477.15 448.15 476.65C447.083 476.15 446.267 475.099 445.7 473.5L445.3 473.5C444.134 474.633 443.134 475.433 442.3 475.9C441.4 476.4 440.483 476.766 439.55 477C438.616 477.266 437.65 477.4 436.65 477.4C433.95 477.4 431.816 476.566 430.25 474.9C428.583 473.233 427.75 471.183 427.75 468.75C427.75 465.783 428.967 463.316 431.4 461.349C433.833 459.349 437.75 458.349 443.15 458.349L445.3 458.349L445.3 455.65C445.3 453.816 444.8 452.566 443.8 451.9C442.767 451.299 441.467 451 439.9 451M547.8 452.4C546.667 452.4 545.5 452.766 544.3 453.5C543.066 454.233 541.75 455.667 540.35 457.799L540.35 476.7L532.3 476.7L532.3 446.65L540.35 446.65L540.35 452.4C541.816 450.066 543.434 448.417 545.2 447.45C546.967 446.45 548.767 445.95 550.6 445.95C552.967 445.95 555 446.733 556.7 448.299C558.434 449.799 559.3 452.2 559.3 455.5L559.3 476.7L551.15 476.7L551.15 457.5C551.15 455.833 551.017 454.7 550.75 454.099C550.417 453.533 550 453.099 549.5 452.799C548.967 452.533 548.4 452.4 547.8 452.4M511.5 455.5L511.5 476.7L503.4 476.7L503.4 457.5C503.4 455.833 503.25 454.7 502.95 454.099C502.616 453.533 502.2 453.099 501.7 452.799C501.2 452.533 500.634 452.4 500 452.4C498.866 452.4 497.7 452.766 496.5 453.5C495.3 454.233 493.983 455.667 492.55 457.799L492.55 476.7L484.5 476.7L484.5 446.65L492.55 446.65L492.55 452.4C494.05 450.066 495.667 448.417 497.4 447.45C499.2 446.45 501.017 445.95 502.85 445.95C505.184 445.95 507.2 446.733 508.9 448.299C510.634 449.799 511.5 452.2 511.5 455.5M525.75 476.7L517.65 476.7L517.65 446.65L525.75 446.65L525.75 476.7ZM525.75 441.599L517.65 441.599L517.65 434.9L525.75 434.9L525.75 441.599ZM579.05 451.15C577.05 451.15 575.45 452.083 574.25 453.95C573.017 455.783 572.4 458.283 572.4 461.45C572.4 464.183 572.9 466.333 573.9 467.9C574.866 469.466 576.233 470.25 578 470.25C579.3 470.25 580.55 469.849 581.75 469.049C582.917 468.25 584.017 467.066 585.05 465.5L585.05 454.4C583.917 453.133 582.866 452.283 581.9 451.849C580.934 451.383 579.983 451.15 579.05 451.15M593.2 469.599C593.2 475.667 592.616 479.733 591.45 481.799C590.283 483.933 588.5 485.533 586.1 486.599C583.667 487.667 580.9 488.2 577.8 488.2C574.333 488.2 570.583 487.466 566.55 486L567.2 480.15C570.533 481.683 573.667 482.45 576.6 482.45C579.434 482.45 581.566 481.866 583 480.7C584.366 479.5 585.05 477.383 585.05 474.349L585.05 470.25C584.217 472.15 582.967 473.7 581.3 474.9C579.634 476.099 577.667 476.7 575.4 476.7C573.1 476.7 571.05 476.116 569.25 474.95C567.517 473.816 566.184 472.066 565.25 469.7C564.283 467.366 563.8 464.75 563.8 461.849C563.8 457.349 564.934 453.583 567.2 450.549C569.467 447.483 572.6 445.95 576.6 445.95C577.7 445.95 578.7 446.066 579.6 446.299C580.5 446.533 581.35 446.883 582.15 447.349C582.95 447.783 583.917 448.566 585.05 449.7L585.95 446.65L593.2 446.65L593.2 469.599ZM221.8 472.4L221.8 476.7L198.05 476.7L198.05 436.25L203.8 436.25L203.8 472.4L221.8 472.4ZM236.8 450.4C234.667 450.4 233 451.083 231.8 452.45C230.6 453.816 229.883 455.866 229.65 458.599L243.15 458.599C243.15 455.667 242.55 453.549 241.35 452.25C240.183 451.016 238.667 450.4 236.8 450.4M323.55 448.2C325.483 446.933 327.733 446.299 330.3 446.299C333.8 446.299 336.583 447.533 338.65 450C340.717 452.466 341.75 456.167 341.75 461.099L341.75 462.7L322.6 462.7C322.933 465.333 323.517 467.349 324.35 468.75C325.25 470.216 326.4 471.333 327.8 472.099C329.2 472.866 331 473.25 333.2 473.25C334.333 473.25 335.433 473.167 336.5 473C337.6 472.799 339.3 472.299 341.6 471.5L341.6 475.799C337.933 476.866 334.8 477.4 332.2 477.4C327.5 477.4 323.817 475.833 321.15 472.7C318.483 469.633 317.15 465.966 317.15 461.7C317.15 458.933 317.733 456.283 318.9 453.75C320.1 451.216 321.65 449.366 323.55 448.2M305.8 453C305.4 452.366 304.883 451.866 304.25 451.5C303.583 451.167 302.867 451 302.1 451C300.8 451 299.367 451.4 297.8 452.2C296.267 453.033 294.6 454.799 292.8 457.5L292.8 476.7L287.35 476.7L287.35 447L292.8 447L292.8 452.549C294.167 450.583 295.767 449.049 297.6 447.95C299.4 446.849 301.267 446.299 303.2 446.299C305.733 446.299 307.783 447.116 309.35 448.75C310.917 450.316 311.7 452.516 311.7 455.349L311.7 476.7L306.3 476.7L306.3 457.099C306.3 455.033 306.133 453.667 305.8 453M248.5 462.7L229.4 462.7C229.7 465.333 230.283 467.349 231.15 468.75C232.017 470.216 233.167 471.333 234.6 472.099C236 472.866 237.8 473.25 240 473.25C241.133 473.25 242.233 473.167 243.3 473C244.4 472.799 246.1 472.299 248.4 471.5L248.4 475.799C244.7 476.866 241.567 477.4 239 477.4C234.3 477.4 230.6 475.833 227.9 472.7C225.267 469.633 223.95 465.966 223.95 461.7C223.95 458.933 224.533 456.283 225.7 453.75C226.9 451.216 228.45 449.366 230.35 448.2C232.283 446.933 234.533 446.299 237.1 446.299C240.6 446.299 243.367 447.533 245.4 450C247.467 452.466 248.5 456.167 248.5 461.099L248.5 462.7ZM260.2 476.7L254.75 476.7L254.75 447L260.2 447L260.2 476.7ZM260.2 441.599L254.75 441.599L254.75 436.249L260.2 436.249L260.2 441.599ZM273.8 441.15L273.8 447L281.6 447L281.6 451.049L273.8 451.049L273.8 467.549C273.8 469.616 274.217 471.099 275.05 472C275.883 472.9 277.167 473.349 278.9 473.349C279.6 473.349 280.45 473.233 281.45 473L281.45 476.7C279.817 477.167 278.4 477.4 277.2 477.4C274.5 477.4 272.367 476.633 270.8 475.099C269.233 473.533 268.45 471.333 268.45 468.5L268.45 451.049L264.75 451.049L264.75 447L268.45 447L268.45 441.599L273.8 441.15Z" fill="#365fcf" fill-rule="evenodd" /></g></svg>