<?xml version="1.0" encoding="UTF-8" standalone="no"?>
<!DOCTYPE svg PUBLIC "-//W3C//DTD SVG 1.1//EN" "http://www.w3.org/Graphics/SVG/1.1/DTD/svg11.dtd">
<!-- Created with Linearity Curve (http://linearity.io/curve) -->
<svg height="700.0pt" stroke-miterlimit="10" style="fill-rule:nonzero;clip-rule:evenodd;stroke-linecap:round;stroke-linejoin:round;" version="1.1" viewBox="0 0 800 700" width="800.0pt" xml:space="preserve" xmlns="http://www.w3.org/2000/svg" xmlns:xlink="http://www.w3.org/1999/xlink">
<defs/>
<g id="Layer-1">
<g opacity="1">
<clipPath clip-rule="nonzero" id="ClipPath">
<path d="M0 0L800 0L800 700L0 700L0 0Z"/>
</clipPath>
<g clip-path="url(#ClipPath)">
<path d="M811.2 699.05C811.2 705.717 807.866 709.05 801.2 709.05L-0.0498047 709.05C-6.7168 709.05-10.0498 705.717-10.0498 699.05L-10.0498 1.9998C-10.0498-4.6662-6.7168-8.0002-0.0498047-8.0002L801.2-8.0002C807.866-8.0002 811.2-4.6662 811.2 1.9998L811.2 699.05Z" fill="#231f20" fill-rule="evenodd" opacity="0" stroke="none"/>
</g>
</g>
<g opacity="1">
<clipPath clip-rule="nonzero" id="ClipPath_2">
<path d="M0 0L800 0L800 700L0 700L0 0Z"/>
</clipPath>
<g clip-path="url(#ClipPath_2)">
<path d="M398.55 308.05C398.683 307.317 398.817 306.584 398.95 305.85C398.95 305.783 398.967 305.734 399 305.7C399.2 304.667 399.45 303.683 399.75 302.75C399.817 302.383 399.933 302 400.1 301.6C400.467 300.4 400.867 299.234 401.3 298.1C402.067 296.234 402.95 294.484 403.95 292.85C412.651 280.783 426.5 274.734 445.5 274.7C440.967 300.334 429.417 311.55 410.85 308.35C413.75 294.984 423.083 285.317 438.85 279.35C432.616 279.984 427.167 281.517 422.5 283.95C418.234 286.15 414.634 289.133 411.7 292.9C410.6 294.267 409.6 295.767 408.7 297.4C407.267 299.9 406.067 302.683 405.1 305.75C405 305.95 404.934 306.167 404.901 306.4C403.934 309.4 403.217 312.683 402.75 316.25L398.55 308.05ZM396.85 294.85C397.017 295.883 397.2 296.933 397.4 298L397.1 298.85L397.1 298.95L397 299.1L395.05 304.7C394.617 302.667 394.234 300.7 393.9 298.8L393.9 298.75L393.9 298.5C393.633 297.033 393.417 295.633 393.25 294.3C391.084 276.967 394.3 264.567 402.901 257.1C405.567 254.8 408.734 252.967 412.401 251.6C417.1 268.734 412.866 278.967 399.7 282.3C398.933 272.533 401.817 263.8 408.35 256.1C406.151 257.334 404.234 258.867 402.6 260.7C396.234 267.734 394.317 279.117 396.85 294.85M461.55 292.35C460.05 281.117 455.85 271.017 448.95 262.05C447.116 259.65 445.067 257.317 442.8 255.05C440.366 252.617 437.833 250.4 435.2 248.4C426.234 241.667 416.134 237.617 404.901 236.25C402.634 235.984 400.317 235.834 397.95 235.8C397.383 235.767 396.817 235.75 396.25 235.75C392.617 235.75 389.084 236.017 385.65 236.55C374.717 238.217 364.867 242.484 356.1 249.35C353.9 251.084 351.767 252.984 349.7 255.05C347.133 257.617 344.834 260.283 342.8 263.05C336.3 271.85 332.367 281.7 331 292.6C330.633 295.5 330.45 298.5 330.45 301.6C330.45 303.234 330.5 304.85 330.6 306.45C330.7 308.183 330.867 309.883 331.1 311.55C332.633 322.317 336.667 332.033 343.2 340.7C343.867 341.567 344.567 342.433 345.3 343.3C346.334 344.567 348.467 346.667 351.7 349.6C351.862 349.744 352.023 349.899 352.183 350.045C353.354 351.154 354.224 351.974 354.3 352.05C354.633 352.384 355.334 353.151 356.4 354.35C356.933 354.984 357.55 355.717 358.25 356.55C359.984 358.817 361.433 361.2 362.6 363.7C363.1 364.8 363.55 365.95 363.95 367.151C364.217 367.55 364.533 367.934 364.9 368.3C366.533 369.901 368.484 370.734 370.75 370.8L385.35 370.8L387.45 370.8C388.283 370.767 389.067 370.634 389.8 370.401C390.8 370.033 391.7 369.434 392.5 368.6C393.067 368 393.533 367.366 393.9 366.7C394.4 365.734 394.667 364.7 394.7 363.6L394.7 361.1L394.7 346.3L394.7 342.65C394.367 333.917 392.867 326.234 390.2 319.6C389.667 318.234 389.067 316.933 388.4 315.7C386.933 312.767 385.2 310.084 383.2 307.65C382.967 307.317 382.7 307 382.4 306.7C378.8 302.5 374.417 299 369.25 296.2C364.484 293.6 359.084 291.584 353.05 290.15C354.85 291.017 356.567 291.9 358.2 292.8C373.834 301.7 383.283 314.45 386.55 331.05C358.717 328.484 345.667 313.317 347.4 285.55C373.8 288.55 390.8 299.25 398.4 317.65L399.55 320.85C400.084 322.45 400.55 324.1 400.95 325.8C401.184 327 401.417 328.234 401.651 329.5C402.217 332.8 402.583 336.267 402.75 339.9L402.75 361.95L402.75 363.3C402.817 365.3 403.55 367.017 404.95 368.45L405 368.5C406.467 369.967 408.234 370.734 410.3 370.8L421.651 370.8C422.55 370.767 423.401 370.634 424.2 370.401C425.401 369.967 426.484 369.267 427.45 368.3C427.783 367.967 428.1 367.616 428.401 367.25C428.833 365.917 429.333 364.651 429.901 363.45C430.8 361.417 431.917 359.517 433.25 357.75C433.884 356.917 434.484 356.167 435.05 355.5C436.017 354.333 438.151 352.417 438.35 352.25C438.95 351.717 439.567 351.184 440.2 350.65L440.2 350.6C440.378 350.439 440.623 350.211 440.892 349.958C441.362 349.526 441.83 349.097 442.3 348.65C442.467 348.484 442.634 348.3 442.8 348.1C442.866 348.067 442.917 348.017 442.95 347.95L446.25 344.45C446.55 344.084 446.866 343.7 447.2 343.3C447.234 343.267 447.267 343.25 447.3 343.25C447.734 342.75 448.151 342.217 448.55 341.65C455.517 332.817 459.8 322.85 461.401 311.75C461.634 310.017 461.817 308.25 461.95 306.45C462.05 304.85 462.1 303.234 462.1 301.6C462.1 298.433 461.917 295.35 461.55 292.35" fill="#ffffff" fill-rule="nonzero" opacity="1" stroke="none"/>
<path d="M420.3 379.05L371.15 379.05L370.8 379.05C368.667 379.116 366.817 379.901 365.25 381.401C364.45 382.234 363.85 383.134 363.45 384.1C363.15 384.833 362.967 385.616 362.9 386.45L362.9 388.35C363.067 390.184 363.85 391.8 365.25 393.2C366.883 394.833 368.85 395.651 371.15 395.651L420.3 395.651C422.6 395.651 424.55 394.833 426.151 393.2C427.717 391.667 428.533 389.8 428.6 387.6L428.6 387.2C428.567 384.967 427.75 383.033 426.151 381.401C424.55 379.833 422.6 379.05 420.3 379.05" fill="#ffffff" fill-rule="nonzero" opacity="1" stroke="none"/>
<path d="M420.3 403.45L371.15 403.45C368.85 403.45 366.883 404.25 365.25 405.849C363.85 407.283 363.067 408.95 362.9 410.849L362.9 412.75C363.067 414.583 363.85 416.2 365.25 417.599C366.883 419.2 368.817 420.016 371.05 420.05L420.401 420.05C422.634 420.016 424.55 419.2 426.151 417.599C427.717 416.066 428.533 414.2 428.6 412L428.6 411.599C428.567 409.366 427.75 407.45 426.151 405.849C424.55 404.25 422.6 403.45 420.3 403.45" fill="#ffffff" fill-rule="nonzero" opacity="1" stroke="none"/>
</g>
</g>
<g opacity="0">
<clipPath clip-rule="nonzero" id="ClipPath_3">
<path d="M0 0L800 0L800 700L0 700L0 0Z"/>
</clipPath>
<g clip-path="url(#ClipPath_3)">
<path d="M330 450.4C327.867 450.4 326.217 451.083 325.05 452.45C323.817 453.816 323.083 455.866 322.85 458.599L336.4 458.599C336.4 455.667 335.783 453.549 334.55 452.25C333.383 451.016 331.867 450.4 330 450.4M364.45 446.45L364.45 451.5C363.517 451.167 362.683 451 361.95 451C360.283 451 358.733 451.516 357.3 452.549C355.833 453.583 354.533 455.099 353.4 457.099L353.4 476.7L347.95 476.7L347.95 447L353.4 447L353.4 452.549C354.4 450.583 355.733 449.049 357.4 447.95C359 446.849 360.75 446.299 362.65 446.299C363.217 446.299 363.817 446.349 364.45 446.45M378.1 436.25L378.1 471L396.15 471L396.15 476.7L369.65 476.7L369.65 436.25L378.1 436.25ZM479.95 453.4C478.85 452.966 477.8 452.75 476.8 452.75C475.2 452.75 473.75 453.167 472.45 454C471.116 454.766 469.934 455.983 468.9 457.65L468.9 476.7L460.8 476.7L460.8 446.65L468.9 446.65L468.9 452.4C469.866 450.4 471.184 448.833 472.85 447.7C474.55 446.533 476.417 445.95 478.45 445.95C478.95 445.95 479.45 446.033 479.95 446.2L479.95 453.4ZM407.7 468.099C408.434 469.266 409.417 470.2 410.65 470.9C411.884 471.533 413.55 471.849 415.65 471.849C418.35 471.849 421.384 471.25 424.75 470.049L424.75 475.75C420.917 476.849 417.3 477.4 413.9 477.4C410.667 477.4 407.833 476.783 405.4 475.549C402.967 474.383 401.083 472.5 399.75 469.9C398.45 467.299 397.8 464.483 397.8 461.45C397.8 458.65 398.35 456.066 399.45 453.7C400.584 451.299 402.2 449.417 404.3 448.049C406.434 446.65 409.066 445.95 412.2 445.95C416.033 445.95 419.083 447.183 421.35 449.65C423.616 452.083 424.75 456.633 424.75 463.299L406.3 463.299C406.467 465.333 406.934 466.933 407.7 468.099M411.95 451.049C410.384 451.049 409.066 451.7 408 453C407.033 454.299 406.434 456.216 406.2 458.75L416.8 458.75C416.8 456.016 416.35 454.033 415.45 452.799C414.55 451.633 413.384 451.049 411.95 451.049M443.4 463.049C440.767 463.049 438.8 463.533 437.5 464.5C436.2 465.433 435.55 466.583 435.55 467.95C435.55 469.083 435.95 470.033 436.75 470.799C437.517 471.5 438.434 471.849 439.5 471.849C440.434 471.849 441.384 471.633 442.35 471.2C443.316 470.733 444.3 470.033 445.3 469.099L445.3 463.049L443.4 463.049ZM439.9 451C436.8 451 433.634 451.883 430.4 453.65L430.4 448.049C434.066 446.65 437.717 445.95 441.35 445.95C443.55 445.95 445.533 446.266 447.3 446.9C449.066 447.5 450.467 448.433 451.5 449.7C452.566 450.933 453.1 452.833 453.1 455.4L453.1 468.7C453.1 470.299 453.35 471.283 453.85 471.65C454.316 472.016 454.8 472.2 455.3 472.2C455.6 472.2 455.983 472.167 456.45 472.099L456.6 476.65C454.9 477.15 453.384 477.4 452.05 477.4C450.55 477.4 449.25 477.15 448.15 476.65C447.083 476.15 446.267 475.099 445.7 473.5L445.3 473.5C444.134 474.633 443.134 475.433 442.3 475.9C441.4 476.4 440.483 476.766 439.55 477C438.616 477.266 437.65 477.4 436.65 477.4C433.95 477.4 431.816 476.566 430.25 474.9C428.583 473.233 427.75 471.183 427.75 468.75C427.75 465.783 428.967 463.316 431.4 461.349C433.833 459.349 437.75 458.349 443.15 458.349L445.3 458.349L445.3 455.65C445.3 453.816 444.8 452.566 443.8 451.9C442.767 451.299 441.467 451 439.9 451M547.8 452.4C546.667 452.4 545.5 452.766 544.3 453.5C543.066 454.233 541.75 455.667 540.35 457.799L540.35 476.7L532.3 476.7L532.3 446.65L540.35 446.65L540.35 452.4C541.816 450.066 543.434 448.417 545.2 447.45C546.967 446.45 548.767 445.95 550.6 445.95C552.967 445.95 555 446.733 556.7 448.299C558.434 449.799 559.3 452.2 559.3 455.5L559.3 476.7L551.15 476.7L551.15 457.5C551.15 455.833 551.017 454.7 550.75 454.099C550.417 453.533 550 453.099 549.5 452.799C548.967 452.533 548.4 452.4 547.8 452.4M511.5 455.5L511.5 476.7L503.4 476.7L503.4 457.5C503.4 455.833 503.25 454.7 502.95 454.099C502.616 453.533 502.2 453.099 501.7 452.799C501.2 452.533 500.634 452.4 500 452.4C498.866 452.4 497.7 452.766 496.5 453.5C495.3 454.233 493.983 455.667 492.55 457.799L492.55 476.7L484.5 476.7L484.5 446.65L492.55 446.65L492.55 452.4C494.05 450.066 495.667 448.417 497.4 447.45C499.2 446.45 501.017 445.95 502.85 445.95C505.184 445.95 507.2 446.733 508.9 448.299C510.634 449.799 511.5 452.2 511.5 455.5M525.75 476.7L517.65 476.7L517.65 446.65L525.75 446.65L525.75 476.7ZM525.75 441.599L517.65 441.599L517.65 434.9L525.75 434.9L525.75 441.599ZM579.05 451.15C577.05 451.15 575.45 452.083 574.25 453.95C573.017 455.783 572.4 458.283 572.4 461.45C572.4 464.183 572.9 466.333 573.9 467.9C574.866 469.466 576.233 470.25 578 470.25C579.3 470.25 580.55 469.849 581.75 469.049C582.917 468.25 584.017 467.066 585.05 465.5L585.05 454.4C583.917 453.133 582.866 452.283 581.9 451.849C580.934 451.383 579.983 451.15 579.05 451.15M593.2 469.599C593.2 475.667 592.616 479.733 591.45 481.799C590.283 483.933 588.5 485.533 586.1 486.599C583.667 487.667 580.9 488.2 577.8 488.2C574.333 488.2 570.583 487.466 566.55 486L567.2 480.15C570.533 481.683 573.667 482.45 576.6 482.45C579.434 482.45 581.566 481.866 583 480.7C584.366 479.5 585.05 477.383 585.05 474.349L585.05 470.25C584.217 472.15 582.967 473.7 581.3 474.9C579.634 476.099 577.667 476.7 575.4 476.7C573.1 476.7 571.05 476.116 569.25 474.95C567.517 473.816 566.184 472.066 565.25 469.7C564.283 467.366 563.8 464.75 563.8 461.849C563.8 457.349 564.934 453.583 567.2 450.549C569.467 447.483 572.6 445.95 576.6 445.95C577.7 445.95 578.7 446.066 579.6 446.299C580.5 446.533 581.35 446.883 582.15 447.349C582.95 447.783 583.917 448.566 585.05 449.7L585.95 446.65L593.2 446.65L593.2 469.599ZM221.8 472.4L221.8 476.7L198.05 476.7L198.05 436.25L203.8 436.25L203.8 472.4L221.8 472.4ZM236.8 450.4C234.667 450.4 233 451.083 231.8 452.45C230.6 453.816 229.883 455.866 229.65 458.599L243.15 458.599C243.15 455.667 242.55 453.549 241.35 452.25C240.183 451.016 238.667 450.4 236.8 450.4M323.55 448.2C325.483 446.933 327.733 446.299 330.3 446.299C333.8 446.299 336.583 447.533 338.65 450C340.717 452.466 341.75 456.167 341.75 461.099L341.75 462.7L322.6 462.7C322.933 465.333 323.517 467.349 324.35 468.75C325.25 470.216 326.4 471.333 327.8 472.099C329.2 472.866 331 473.25 333.2 473.25C334.333 473.25 335.433 473.167 336.5 473C337.6 472.799 339.3 472.299 341.6 471.5L341.6 475.799C337.933 476.866 334.8 477.4 332.2 477.4C327.5 477.4 323.817 475.833 321.15 472.7C318.483 469.633 317.15 465.966 317.15 461.7C317.15 458.933 317.733 456.283 318.9 453.75C320.1 451.216 321.65 449.366 323.55 448.2M305.8 453C305.4 452.366 304.883 451.866 304.25 451.5C303.583 451.167 302.867 451 302.1 451C300.8 451 299.367 451.4 297.8 452.2C296.267 453.033 294.6 454.799 292.8 457.5L292.8 476.7L287.35 476.7L287.35 447L292.8 447L292.8 452.549C294.167 450.583 295.767 449.049 297.6 447.95C299.4 446.849 301.267 446.299 303.2 446.299C305.733 446.299 307.783 447.116 309.35 448.75C310.917 450.316 311.7 452.516 311.7 455.349L311.7 476.7L306.3 476.7L306.3 457.099C306.3 455.033 306.133 453.667 305.8 453M248.5 462.7L229.4 462.7C229.7 465.333 230.283 467.349 231.15 468.75C232.017 470.216 233.167 471.333 234.6 472.099C236 472.866 237.8 473.25 240 473.25C241.133 473.25 242.233 473.167 243.3 473C244.4 472.799 246.1 472.299 248.4 471.5L248.4 475.799C244.7 476.866 241.567 477.4 239 477.4C234.3 477.4 230.6 475.833 227.9 472.7C225.267 469.633 223.95 465.966 223.95 461.7C223.95 458.933 224.533 456.283 225.7 453.75C226.9 451.216 228.45 449.366 230.35 448.2C232.283 446.933 234.533 446.299 237.1 446.299C240.6 446.299 243.367 447.533 245.4 450C247.467 452.466 248.5 456.167 248.5 461.099L248.5 462.7ZM260.2 476.7L254.75 476.7L254.75 447L260.2 447L260.2 476.7ZM260.2 441.599L254.75 441.599L254.75 436.249L260.2 436.249L260.2 441.599ZM273.8 441.15L273.8 447L281.6 447L281.6 451.049L273.8 451.049L273.8 467.549C273.8 469.616 274.217 471.099 275.05 472C275.883 472.9 277.167 473.349 278.9 473.349C279.6 473.349 280.45 473.233 281.45 473L281.45 476.7C279.817 477.167 278.4 477.4 277.2 477.4C274.5 477.4 272.367 476.633 270.8 475.099C269.233 473.533 268.45 471.333 268.45 468.5L268.45 451.049L264.75 451.049L264.75 447L268.45 447L268.45 441.599L273.8 441.15Z" fill="#ffffff" fill-rule="evenodd" opacity="1" stroke="none"/>
<path d="M304.211 670.875C304.217 670.829 304.231 670.786 304.251 670.746C304.442 670.137 304.681 669.584 304.965 669.088C305.144 668.764 305.343 668.465 305.562 668.193C306.144 667.445 306.859 666.854 307.707 666.416C308.634 665.933 309.716 665.628 310.954 665.502C307.822 666.687 305.969 668.607 305.393 671.263C309.081 671.898 311.375 669.67 312.275 664.579C308.501 664.585 305.75 665.787 304.022 668.184C303.823 668.508 303.648 668.855 303.496 669.227C303.41 669.452 303.33 669.684 303.257 669.922C303.224 670.001 303.201 670.077 303.188 670.15C303.128 670.336 303.079 670.531 303.039 670.736C303.032 670.743 303.029 670.753 303.029 670.766C303.003 670.912 302.976 671.058 302.949 671.203L303.784 672.832C303.877 672.123 304.019 671.472 304.211 670.875" fill="#231f20" fill-rule="nonzero" opacity="1" stroke="none"/>
<path d="M304.896 660.884C303.598 662.413 303.025 664.149 303.178 666.088C305.793 665.426 306.634 663.394 305.701 659.99C304.972 660.262 304.343 660.626 303.813 661.083C302.105 662.566 301.466 665.03 301.896 668.472C301.93 668.737 301.973 669.015 302.026 669.307L302.026 669.356L302.026 669.365C302.092 669.743 302.168 670.134 302.254 670.538L302.642 669.425L302.661 669.396L302.661 669.376L302.721 669.207C302.681 668.995 302.645 668.786 302.612 668.581C302.108 665.456 302.489 663.196 303.754 661.798C304.078 661.434 304.459 661.129 304.896 660.884" fill="#231f20" fill-rule="nonzero" opacity="1" stroke="none"/>
<path d="M302.949 671.203C302.975 671.057 303.002 670.912 303.029 670.765C303.029 670.753 303.032 670.743 303.038 670.736C303.078 670.531 303.128 670.336 303.187 670.15C303.201 670.077 303.224 670.001 303.257 669.922C303.33 669.683 303.409 669.452 303.495 669.226C303.648 668.855 303.823 668.508 304.022 668.183C305.75 665.787 308.501 664.585 312.275 664.579C311.375 669.67 309.08 671.898 305.392 671.263C305.969 668.607 307.822 666.687 310.954 665.502C309.716 665.628 308.634 665.932 307.706 666.416C306.859 666.853 306.144 667.445 305.561 668.193C305.343 668.465 305.144 668.764 304.965 669.088C304.68 669.584 304.442 670.137 304.25 670.746C304.23 670.786 304.217 670.829 304.211 670.875C304.018 671.472 303.876 672.123 303.783 672.832L302.949 671.203ZM302.612 668.581C302.645 668.786 302.681 668.995 302.72 669.207L302.661 669.376L302.661 669.395L302.641 669.425L302.254 670.538C302.168 670.134 302.092 669.743 302.026 669.365L302.026 669.355L302.026 669.307C301.972 669.015 301.929 668.736 301.896 668.472C301.466 665.029 302.105 662.565 303.813 661.083C304.343 660.626 304.972 660.262 305.7 659.99C306.634 663.393 305.793 665.426 303.178 666.088C303.025 664.148 303.598 662.413 304.896 660.884C304.459 661.129 304.078 661.433 303.754 661.798C302.489 663.195 302.108 665.456 302.612 668.581M315.463 668.084C315.165 665.853 314.331 663.847 312.96 662.065C312.596 661.589 312.189 661.126 311.739 660.676C311.255 660.192 310.752 659.752 310.229 659.354C308.448 658.016 306.442 657.213 304.211 656.941C303.761 656.888 303.3 656.858 302.83 656.851C302.718 656.845 302.605 656.842 302.492 656.842C301.771 656.842 301.069 656.894 300.386 657.001C298.215 657.332 296.259 658.18 294.517 659.543C294.08 659.888 293.657 660.265 293.246 660.676C292.736 661.185 292.279 661.715 291.875 662.265C290.584 664.013 289.803 665.969 289.532 668.134C289.459 668.71 289.422 669.307 289.422 669.922C289.422 670.246 289.432 670.567 289.452 670.886C289.472 671.229 289.505 671.567 289.551 671.898C289.856 674.037 290.657 675.967 291.955 677.688C292.087 677.86 292.226 678.033 292.372 678.205C292.577 678.457 293.001 678.874 293.643 679.456C293.675 679.485 293.707 679.516 293.739 679.545C293.971 679.766 294.144 679.928 294.159 679.943C294.226 680.01 294.365 680.162 294.576 680.399C294.682 680.525 294.805 680.672 294.944 680.837C295.288 681.287 295.576 681.761 295.808 682.257C295.907 682.475 295.997 682.704 296.076 682.942C296.129 683.021 296.192 683.098 296.265 683.171C296.59 683.488 296.977 683.654 297.427 683.667L300.327 683.667L300.744 683.667C300.91 683.661 301.066 683.635 301.211 683.588C301.41 683.516 301.589 683.396 301.747 683.23C301.86 683.111 301.952 682.985 302.026 682.853C302.125 682.661 302.178 682.456 302.184 682.237L302.184 681.74L302.184 678.801L302.184 678.076C302.118 676.341 301.82 674.814 301.291 673.497C301.184 673.225 301.066 672.968 300.933 672.723C300.641 672.14 300.298 671.607 299.9 671.124C299.854 671.057 299.801 670.994 299.741 670.934C299.026 670.1 298.156 669.405 297.129 668.849C296.182 668.333 295.11 667.932 293.911 667.647C294.269 667.819 294.61 667.995 294.934 668.174C298.04 669.941 299.917 672.474 300.566 675.771C295.037 675.262 292.445 672.249 292.789 666.733C298.033 667.33 301.41 669.455 302.919 673.11L303.148 673.745C303.254 674.063 303.346 674.391 303.426 674.728C303.472 674.967 303.519 675.212 303.565 675.464C303.678 676.119 303.75 676.807 303.783 677.529L303.783 681.909L303.783 682.178C303.797 682.575 303.942 682.916 304.22 683.201L304.23 683.211C304.522 683.502 304.873 683.654 305.283 683.667L307.538 683.667C307.717 683.661 307.886 683.635 308.044 683.588C308.282 683.502 308.498 683.363 308.69 683.171C308.756 683.104 308.819 683.035 308.879 682.962C308.965 682.697 309.064 682.446 309.177 682.207C309.355 681.804 309.577 681.426 309.842 681.075C309.968 680.91 310.087 680.761 310.199 680.628C310.391 680.396 310.815 680.016 310.855 679.982C310.974 679.877 311.096 679.77 311.222 679.665L311.222 679.655C311.258 679.623 311.306 679.578 311.36 679.527C311.453 679.441 311.546 679.356 311.639 679.267C311.673 679.234 311.706 679.198 311.739 679.158C311.752 679.151 311.762 679.141 311.768 679.129L312.424 678.433C312.484 678.36 312.547 678.284 312.613 678.205C312.619 678.198 312.626 678.195 312.633 678.195C312.719 678.096 312.802 677.99 312.881 677.877C314.265 676.123 315.116 674.142 315.433 671.938C315.48 671.594 315.516 671.243 315.543 670.886C315.562 670.567 315.573 670.246 315.573 669.922C315.573 669.293 315.536 668.681 315.463 668.084" fill="#ffffff" fill-rule="nonzero" opacity="1" stroke="none"/>
<path d="M307.27 685.307L297.507 685.307L297.437 685.307C297.014 685.32 296.646 685.475 296.335 685.774C296.176 685.939 296.057 686.118 295.978 686.31C295.918 686.455 295.882 686.611 295.869 686.777L295.869 687.154C295.902 687.518 296.057 687.839 296.335 688.118C296.66 688.442 297.05 688.604 297.507 688.604L307.27 688.604C307.727 688.604 308.114 688.442 308.432 688.118C308.744 687.813 308.906 687.442 308.919 687.005L308.919 686.925C308.912 686.482 308.75 686.098 308.432 685.774C308.114 685.462 307.727 685.307 307.27 685.307" fill="#ffffff" fill-rule="nonzero" opacity="1" stroke="none"/>
<path d="M307.27 690.153L297.507 690.153C297.05 690.153 296.66 690.311 296.335 690.63C296.057 690.914 295.902 691.245 295.869 691.623L295.869 692C295.902 692.364 296.057 692.685 296.335 692.964C296.66 693.281 297.044 693.443 297.487 693.45L307.29 693.45C307.734 693.443 308.114 693.281 308.432 692.964C308.744 692.659 308.906 692.288 308.919 691.851L308.919 691.771C308.912 691.328 308.75 690.947 308.432 690.63C308.114 690.311 307.727 690.153 307.27 690.153" fill="#ffffff" fill-rule="nonzero" opacity="1" stroke="none"/>
</g>
</g>
</g>
</svg>
