<?xml version="1.0" encoding="UTF-8"?>
<svg xmlns="http://www.w3.org/2000/svg" viewBox="320.4 225.8 151.7 204.3" fill-rule="nonzero"><g><path d="M398.55 308.05C398.683 307.317 398.817 306.584 398.95 305.85C398.95 305.783 398.967 305.734 399 305.7C399.2 304.667 399.45 303.683 399.75 302.75C399.817 302.383 399.933 302 400.1 301.6C400.467 300.4 400.867 299.234 401.3 298.1C402.067 296.234 402.95 294.484 403.95 292.85C412.651 280.783 426.5 274.734 445.5 274.7C440.967 300.334 429.417 311.55 410.85 308.35C413.75 294.984 423.083 285.317 438.85 279.35C432.616 279.984 427.167 281.517 422.5 283.95C418.234 286.15 414.634 289.133 411.7 292.9C410.6 294.267 409.6 295.767 408.7 297.4C407.267 299.9 406.067 302.683 405.1 305.75C405 305.95 404.934 306.167 404.901 306.4C403.934 309.4 403.217 312.683 402.75 316.25L398.55 308.05ZM396.85 294.85C397.017 295.883 397.2 296.933 397.4 298L397.1 298.85L397.1 298.95L397 299.1L395.05 304.7C394.617 302.667 394.234 300.7 393.9 298.8L393.9 298.75L393.9 298.5C393.633 297.033 393.417 295.633 393.25 294.3C391.084 276.967 394.3 264.567 402.901 257.1C405.567 254.8 408.734 252.967 412.401 251.6C417.1 268.734 412.866 278.967 399.7 282.3C398.933 272.533 401.817 263.8 408.35 256.1C406.151 257.334 404.234 258.867 402.6 260.7C396.234 267.734 394.317 279.117 396.85 294.85M461.55 292.35C460.05 281.117 455.85 271.017 448.95 262.05C447.116 259.65 445.067 257.317 442.8 255.05C440.366 252.617 437.833 250.4 435.2 248.4C426.234 241.667 416.134 237.617 404.901 236.25C402.634 235.984 400.317 235.834 397.95 235.8C397.383 235.767 396.817 235.75 396.25 235.75C392.617 235.75 389.084 236.017 385.65 236.55C374.717 238.217 364.867 242.484 356.1 249.35C353.9 251.084 351.767 252.984 349.7 255.05C347.133 257.617 344.834 260.283 342.8 263.05C336.3 271.85 332.367 281.7 331 292.6C330.633 295.5 330.45 298.5 330.45 301.6C330.45 303.234 330.5 304.85 330.6 306.45C330.7 308.183 330.867 309.883 331.1 311.55C332.633 322.317 336.667 332.033 343.2 340.7C343.867 341.567 344.567 342.433 345.3 343.3C346.334 344.567 348.467 346.667 351.7 349.6C351.862 349.744 352.023 349.899 352.183 350.045C353.354 351.154 354.224 351.974 354.3 352.05C354.633 352.384 355.334 353.151 356.4 354.35C356.933 354.984 357.55 355.717 358.25 356.55C359.984 358.817 361.433 361.2 362.6 363.7C363.1 364.8 363.55 365.95 363.95 367.151C364.217 367.55 364.533 367.934 364.9 368.3C366.533 369.901 368.484 370.734 370.75 370.8L385.35 370.8L387.45 370.8C388.283 370.767 389.067 370.634 389.8 370.401C390.8 370.033 391.7 369.434 392.5 368.6C393.067 368 393.533 367.366 393.9 366.7C394.4 365.734 394.667 364.7 394.7 363.6L394.7 361.1L394.7 346.3L394.7 342.65C394.367 333.917 392.867 326.234 390.2 319.6C389.667 318.234 389.067 316.933 388.4 315.7C386.933 312.767 385.2 310.084 383.2 307.65C382.967 307.317 382.7 307 382.4 306.7C378.8 302.5 374.417 299 369.25 296.2C364.484 293.6 359.084 291.584 353.05 290.15C354.85 291.017 356.567 291.9 358.2 292.8C373.834 301.7 383.283 314.45 386.55 331.05C358.717 328.484 345.667 313.317 347.4 285.55C373.8 288.55 390.8 299.25 398.4 317.65L399.55 320.85C400.084 322.45 400.55 324.1 400.95 325.8C401.184 327 401.417 328.234 401.651 329.5C402.217 332.8 402.583 336.267 402.75 339.9L402.75 361.95L402.75 363.3C402.817 365.3 403.55 367.017 404.95 368.45L405 368.5C406.467 369.967 408.234 370.734 410.3 370.8L421.651 370.8C422.55 370.767 423.401 370.634 424.2 370.401C425.401 369.967 426.484 369.267 427.45 368.3C427.783 367.967 428.1 367.616 428.401 367.25C428.833 365.917 429.333 364.651 429.901 363.45C430.8 361.417 431.917 359.517 433.25 357.75C433.884 356.917 434.484 356.167 435.05 355.5C436.017 354.333 438.151 352.417 438.35 352.25C438.95 351.717 439.567 351.184 440.2 350.65L440.2 350.6C440.378 350.439 440.623 350.211 440.892 349.958C441.362 349.526 441.83 349.097 442.3 348.65C442.467 348.484 442.634 348.3 442.8 348.1C442.866 348.067 442.917 348.017 442.95 347.95L446.25 344.45C446.55 344.084 446.866 343.7 447.2 343.3C447.234 343.267 447.267 343.25 447.3 343.25C447.734 342.75 448.151 342.217 448.55 341.65C455.517 332.817 459.8 322.85 461.401 311.75C461.634 310.017 461.817 308.25 461.95 306.45C462.05 304.85 462.1 303.234 462.1 301.6C462.1 298.433 461.917 295.35 461.55 292.35" fill="#ffffff" fill-rule="nonzero" /><path d="M420.3 379.05L371.15 379.05L370.8 379.05C368.667 379.116 366.817 379.901 365.25 381.401C364.45 382.234 363.85 383.134 363.45 384.1C363.15 384.833 362.967 385.616 362.9 386.45L362.9 388.35C363.067 390.184 363.85 391.8 365.25 393.2C366.883 394.833 368.85 395.651 371.15 395.651L420.3 395.651C422.6 395.651 424.55 394.833 426.151 393.2C427.717 391.667 428.533 389.8 428.6 387.6L428.6 387.2C428.567 384.967 427.75 383.033 426.151 381.401C424.55 379.833 422.6 379.05 420.3 379.05" fill="#ffffff" fill-rule="nonzero" /><path d="M420.3 403.45L371.15 403.45C368.85 403.45 366.883 404.25 365.25 405.849C363.85 407.283 363.067 408.95 362.9 410.849L362.9 412.75C363.067 414.583 363.85 416.2 365.25 417.599C366.883 419.2 368.817 420.016 371.05 420.05L420.401 420.05C422.634 420.016 424.55 419.2 426.151 417.599C427.717 416.066 428.533 414.2 428.6 412L428.6 411.599C428.567 409.366 427.75 407.45 426.151 405.849C424.55 404.25 422.6 403.45 420.3 403.45" fill="#ffffff" fill-rule="nonzero" /></g></svg>